<svg id="Layer_1" data-name="Layer 1" xmlns="http://www.w3.org/2000/svg" viewBox="0 0 399.92 400"><path d="M203.82,0q24.24,10.94,48.49,21.87l136,61.19c8.34,3.75,12.81,11.75,11.3,20.15s-8.37,14.24-17.56,14.92c-1.82.13-3.64.1-5.47.1q-176.84,0-353.67.12c-11.22,0-19.13-3.54-22.93-14.47V96.07c2.51-7.63,8.19-11.71,15.29-14.86,37.49-16.67,74.86-33.6,112.27-50.43L196,0Z"/><path d="M0,377.25a11,11,0,0,0,.93-1.53c3-7.69,8.77-11.67,16.9-12.36,1-.09,2.08-.06,3.12-.06q179,0,358,0c5.66,0,10.93,1,15.05,5.19,5.41,5.46,7.28,11.95,4.57,19.3s-8.17,11.18-15.84,12a47.57,47.57,0,0,1-5.07.08q-177,0-354,.14C12.3,400,4.14,396.77,0,385.84Z"/><path d="M45.12,153.15c-2.06-.28-4-.45-5.88-.81a8.87,8.87,0,0,1-.4-17.38,19.37,19.37,0,0,1,4.62-.52q156.34,0,312.71.07a17,17,0,0,1,8.35,2.38c3,1.8,3.85,5.2,3,8.64a8.3,8.3,0,0,1-6.76,6.75c-1.9.37-3.84.54-6.09.85V316c1.55.1,3.19.23,4.83.31A18.21,18.21,0,0,1,377,333.89c.38,9.17-6.71,17.3-16.12,18.44a40.55,40.55,0,0,1-5.05.36q-156,0-311.93,0c-4.74,0-9.34-.53-13.38-3.33a18.19,18.19,0,0,1-7.12-19.94A17.79,17.79,0,0,1,40,316.31l5.17-.27Zm127.65-.09v162.8h54.06V153.06Zm144.92.11H263.83V316h53.86ZM135.83,316V153.05H82.13V316Z"/></svg>