<svg id="Layer_1" data-name="Layer 1" xmlns="http://www.w3.org/2000/svg" viewBox="0 0 695.22 491.22"><defs><style>.cls-1{fill:#999;}</style></defs><path class="cls-1" d="M674.2,212.41c-6.29,149-230,153.75-325.34,165.6-87.28,11-127.27,39.09-152.92,73.37,44.41,15.2,95.55,23.76,151.63,23.76,194.53,0,329.81-102.69,329.81-229.53A175.09,175.09,0,0,0,674.2,212.41Z"/><path class="cls-1" d="M149.42,141.05c-8.36,0-19.84.8-23.54,1.17v134.5c0,18.4,2.48,19.81,33.52,19.81,42.45,0,63-26,63-79.54C222.38,165.16,199.17,141.05,149.42,141.05Z"/><path class="cls-1" d="M488.54,278c0,13.33,5.61,18.49,20.09,18.49,29.8,0,44.35-13.22,44.35-40.26,0-25.73-16.75-38.82-50.08-38.82H488.54Z"/><path class="cls-1" d="M410.3,337.39c22.39-3.87,64.77-12.15,107.68-27.05-2.33.11-4.69.18-7.12.18-26.82,0-48.58.34-48.86.34l-1.31.1V151.68c0-16.91-1.58-24.18-1.58-24.31l-.34-1.69,55.75,0c37.5,0,59.92,15,59.92,39.66,0,22.89-16.91,38.52-34.61,43.18,26.61,5.81,44.83,24.15,44.83,46.14,0,12-3.09,22.32-9,30.67,47.21-25.84,82.19-62.77,71-114.67-8.89-41.18-51.08-86.37-114.73-117.88C480.63,29.57,418,16.1,347.57,16.1c-194.4,0-329.73,102.73-329.73,229.51C17.84,334,83.5,410.57,189,449,211.48,390,300.63,356.41,410.3,337.39ZM383.19,124.07c14.61,0,29.6,2.58,42.41,5.05l1,.3v25.91l-2.25-2c-12.8-11.16-33.2-16.89-54.24-15.42-40.3,3-68.34,34.61-68.34,77.06,0,55.54,24.91,83.72,74.08,83.72,6.58,0,16.55-.55,24-2.45,1.21-10.43,1.14-54.69,1.14-55.22,0-13.45-3.11-19.56-3.11-19.74l-1-1.94h30.93v64.28c0,6.32.43,13.71,1.38,24.48l.18,1.18-1.27.31a385.91,385.91,0,0,1-58.07,4.26c-48.31,0-100-23.74-100-90.16C270.08,161.28,312.31,124.07,383.19,124.07ZM156.8,310.52c-27.94,0-57.28-1.09-57.63-1.19H97.85s.08-147.95.12-150.57c.23-11.21.36-24.2-2.51-31.15l-.84-2H159.9c57.23,0,94.26,34.08,94.26,86.61C254.16,271,215,310.52,156.8,310.52Z"/><path class="cls-1" d="M547.79,169.15c0-20.27-12.21-29-40.89-29H488.69l-.15,63h11.87C532.73,203.16,547.79,192.22,547.79,169.15Z"/></svg>