<svg id="Layer_1" data-name="Layer 1" xmlns="http://www.w3.org/2000/svg" viewBox="0 0 400 400"><path d="M178.13,0V178.13H0V29.69c.28-.84.62-1.67.85-2.53C3.8,15.8,10.6,7.63,21.31,2.85,24,1.65,26.89.94,29.69,0ZM77.34,100.8c0,5.59-.15,10.54,0,15.48.32,8.62,8.56,14.16,16.16,10.83,4.89-2.14,7.19-6.19,7.25-11.48,0-4.89,0-9.77,0-14.83,5.38,0,10.19.06,15,0,5.29-.1,9.3-2.46,11.37-7.4,3.21-7.67-2.37-15.74-11.06-16-5-.16-10,0-15.31,0,0-5,0-9.59,0-14.13-.05-7.76-5.05-13.3-11.86-13.2S77.4,55.54,77.34,63.08c0,4.65,0,9.29,0,14.25-5.09,0-9.75,0-14.41,0C55.46,77.42,50,82.42,50,89.09s5.47,11.63,13,11.7C67.64,100.83,72.29,100.8,77.34,100.8Z"/><path d="M350,0c5.17,2.3,10.82,3.91,15.4,7.06,9.06,6.25,14.13,15.42,14.17,26.49.21,47.49.1,95,.1,142.49,0,.51-.08,1-.13,1.72a10.43,10.43,0,0,1-9.63-2.14c-26.31-20.55-56.31-30.31-89.6-29.37-27.44.78-52.5,9.32-75,25.06-1,.71-2.07,1.39-3.7,2.47V0ZM290.23,100.8c8.71,0,17.42,0,26.14,0,7.79,0,13.3-4.9,13.32-11.71s-5.51-11.73-13.3-11.74q-25.74,0-51.49,0c-7.79,0-13.31,4.9-13.32,11.71s5.51,11.71,13.29,11.74C273.33,100.83,281.78,100.8,290.23,100.8Z"/><path d="M0,201.57H173.77c-1.08,1.63-1.75,2.68-2.46,3.7-17.4,25-25.91,52.83-25.08,83.25a134.84,134.84,0,0,0,29.16,81.09,11.18,11.18,0,0,1,2.38,10.08H36.69c-18.48,0-31.62-10.35-36-28.29A8.36,8.36,0,0,0,0,350Zm105.93,89.82a6.3,6.3,0,0,1,.29-1.19c3.27-3.35,6.58-6.67,9.82-10,5.38-5.59,5.64-12.5.71-17.34s-11.81-4.53-17.3,1c-3.37,3.38-6.5,7-9.73,10.52a5.74,5.74,0,0,0-1.1-.85c-3.35-3.27-6.67-6.56-10-9.82-5.56-5.38-12.47-5.66-17.32-.73s-4.54,11.81,1,17.31c3.39,3.36,7,6.49,11.17,10.32-4.11,3.82-7.51,6.82-10.73,10-6,5.93-6.44,12.81-1.32,17.86s11.87,4.54,17.87-1.51c3.18-3.2,6.17-6.6,9.53-10.21,3.85,3.89,7,7.13,10.22,10.32,6,6,12.82,6.43,17.88,1.31s4.52-11.87-1.49-17.88C112.25,297.33,109,294.33,105.93,291.39Z"/><path d="M285,169.55A115.23,115.23,0,1,1,284.4,400c-63.5-.09-114.9-51.79-114.85-115.5C169.61,221,221.26,169.51,285,169.55Zm-.18,84.17c-8.85,0-17.69,0-26.54,0-7.27,0-12.2,4.58-12.32,11.23-.12,6.89,4.72,11.78,12.15,11.82q26.73.15,53.46,0c7.41,0,12.24-5,12.12-11.84-.13-6.64-5.07-11.17-12.34-11.21C302.46,253.69,293.61,253.72,284.77,253.72Zm-.39,62.09v.07c9,0,18,.09,26.93,0,7.49-.09,12.37-4.81,12.33-11.65s-5-11.4-12.52-11.41q-26.34,0-52.68,0a15.35,15.35,0,0,0-5,.67c-5.33,1.86-8.22,6.91-7.45,12.66a11.09,11.09,0,0,0,10.66,9.6C265.91,316,275.15,315.81,284.38,315.81Z"/></svg>