<svg id="Layer_1" data-name="Layer 1" xmlns="http://www.w3.org/2000/svg" viewBox="0 0 403.84 400"><path d="M0,113.38c2.15-4.26,5.88-6.29,10.25-7.77C30,98.93,49.67,92.09,69.37,85.3c1-.33,1.92-.73,3-1.16-1.07-6.49-2.15-12.8-3.12-19.12-1-6.67,2.3-11.18,9-12.34,21.83-3.76,43.67-7.49,65.95-11.31.06-1.37.17-2.76.18-4.15,0-8.55,0-17.09,0-25.63,0-7.16,4-11.21,11.13-11.58h.79Q250.19,0,344,.15a13.56,13.56,0,0,1,8.41,3.35c16.07,14.93,31.86,30.18,47.79,45.28a11.13,11.13,0,0,1,3.62,8.72q-.1,127.35-.06,254.7c0,7.9-3.88,11.71-11.91,11.72-13,0-26,.26-39-.05-20.73-.48-40.54,3.37-60,10.46-59.45,21.66-119,42.93-178.59,64.35-8.53,3.06-13.15.91-16.19-7.56q-22.26-62-44.48-123.95a12.4,12.4,0,0,1-1.14-4.52,5.52,5.52,0,0,1,4.71-5.55c3.49-.66,5.82,1.06,7,4.32,3.66,10.1,7.27,20.22,10.91,30.33q16.5,45.88,33,91.75c.43,1.21,1,2.39,1.64,4.08L236.59,342l-.15-.82c-4.12.64-8.24,1.21-12.34,1.92q-46.89,8.07-93.79,16.17c-6,1-10.93-2.35-12-8.54-3.49-19.62-6.82-39.27-10.19-58.91q-7.7-44.77-15.37-89.56T77.35,112.67c-.91-5.27-1.82-10.54-2.84-16.48L12.4,117.49c5.81,16.16,11.49,31.92,17.16,47.69C37.77,188,46,210.79,54.12,233.65c.72,2,1,4.87.15,6.67-.75,1.56-3.36,2.78-5.3,3.06-3,.43-4.66-1.84-5.62-4.52q-6.26-17.4-12.53-34.77Q16.2,163.41,1.55,122.71a26.09,26.09,0,0,0-1.55-3ZM156.4,12.44V165c0,1.32,0,2.63,0,3.94-.25,4-2.63,6.46-6,6.37s-5.71-2.74-5.89-6.63c-.05-1,0-2.1,0-3.16q0-53.61,0-107.23V53.46L81.23,64.34c16.2,94.51,32.3,188.42,48.49,282.8l131.67-22.58-.06-.63h-104c-9.18,0-12.86-3.69-12.86-12.88q0-55.8,0-111.58c0-.92-.06-1.85,0-2.76.36-3.54,3-6,6.17-5.93s5.41,2.47,5.7,5.89c.13,1.44.08,2.89.08,4.34V311.87H391.68V62.56c-4.51,0-8.71,0-12.91,0-9.72-.1-19.46.08-29.15-.47-8.19-.46-12.72-5.75-12.92-14-.11-5-.06-10-.07-15,0-6.81,0-13.61,0-20.67ZM384.49,50.37,348.56,16.15c0,11.13,0,21.24,0,31.35,0,2.35,1.29,2.88,3.26,2.88C362.3,50.36,372.81,50.37,384.49,50.37Z"/><path d="M275.67,86h80.4c1.06,0,2.11,0,3.16,0,4,.23,6.54,2.49,6.65,5.86s-2.47,6-6.67,6.25c-1,.08-2.1,0-3.15,0H194.46a26.27,26.27,0,0,1-4.7-.29,5.56,5.56,0,0,1-4.89-5.8c0-3.08,1.83-5.16,4.9-5.82a20.6,20.6,0,0,1,4.31-.23Z"/><path d="M275.28,266.23h-80.8a34.8,34.8,0,0,1-3.54-.05c-3.57-.36-6.13-2.91-6.15-6s2.49-5.65,6.11-6a35,35,0,0,1,3.55-.06q81,0,162,0a25.9,25.9,0,0,1,4.32.2c3.09.54,5,2.47,5.08,5.62s-1.65,5.23-4.68,6a20.31,20.31,0,0,1-4.69.33Q315.88,266.25,275.28,266.23Z"/><path d="M275.22,182q-41.6,0-83.17,0c-3.39,0-5.93-1-7-4.44a5.8,5.8,0,0,1,4.69-7.3,22,22,0,0,1,3.54-.09h164a18.86,18.86,0,0,1,3.53.08c3.27.64,5.13,2.74,5,6.06-.12,3.12-2,5.08-5.09,5.59a23.2,23.2,0,0,1-3.54.07Z"/><path d="M275.31,128.13H356.9c6.09,0,8.89,1.82,9,5.79.09,4.17-2.85,6.18-9.08,6.18H194a29.8,29.8,0,0,1-3.54-.06,6.28,6.28,0,0,1-5.7-6,6,6,0,0,1,5.79-5.81c1.3-.13,2.62-.08,3.94-.08Z"/><path d="M275.3,224H194.11c-1.31,0-2.63,0-3.93-.11A5.83,5.83,0,0,1,189,212.53a16.38,16.38,0,0,1,4.65-.47q81.78,0,163.57,0c1.67,0,3.87-.19,4.9.74,1.66,1.49,3.34,3.76,3.56,5.85.29,2.8-1.85,4.8-4.85,5.2a31.18,31.18,0,0,1-4.33.15Z"/></svg>