<svg id="Layer_1" data-name="Layer 1" xmlns="http://www.w3.org/2000/svg" viewBox="0 0 399.94 400"><path d="M290.51,0c3.85,2.5,8.12,4.55,11.44,7.63,4,3.72,4.69,9.15,4.69,14.44q0,60.33,0,120.66c0,1.54.16,3.53-.68,4.52-1.55,1.82-3.6,3.76-5.79,4.34-2.83.74-5.4-1-6.37-3.92a19.42,19.42,0,0,1-.75-6.14Q293,82.37,293,23.22c0-7.94-1.91-9.84-9.93-9.84H23.41c-8,0-10.11,2.09-10.11,10.21v352.6c0,8.33,2,10.36,10.37,10.36H283c8.15,0,10.05-1.92,10.06-10.11q0-30.06,0-60.13a17.56,17.56,0,0,1,.68-5.37,6.52,6.52,0,0,1,12.34.32,19.49,19.49,0,0,1,.58,5c0,20.31-.14,40.61.07,60.92.17,16-11.38,22.84-22.76,22.81q-129-.42-258.1,0C13.34,400.05,4.4,396.41,0,384.23V15.62c1.38-2.56,2.23-5.7,4.25-7.56C7.65,5,11.79,2.65,15.62,0Z"/><path d="M218.77,322c-1.12,1.66-1.81,2.73-2.55,3.77-3.73,5.19-9.46,7.43-15,5.85s-9.32-6.39-9.86-12.69c-.58-6.74-1.09-13.48-1.66-20.22-.09-1-.34-2-.71-4.2-.83,2.11-1.3,3.17-1.66,4.26-4.69,14-9.31,28.09-14.05,42.11-1.89,5.58-6.3,7.27-10.52,4.19-2.83-2.05-3.34-4.95-2.34-8,5.35-16.27,10.71-32.54,16.26-48.74a13.27,13.27,0,0,1,14.09-8.83,12.73,12.73,0,0,1,11.54,11c1.18,8.59,1.72,17.28,2.61,26.68,1.29-1.66,2.24-2.9,3.21-4.13,6.11-7.73,17.44-6.94,22.14,1.7,1.91,3.51,3.24,7.33,5.07,11.57,4.79-5.85,9.41-11.37,13.81-17.06.5-.64,0-2.36-.45-3.38-2.8-6-3.43-12.27-.11-18,8.69-15.09,13.5-31.74,19.95-47.72a52.8,52.8,0,0,1,3.14-6.68q26.16-45.43,52.4-90.84c.71-1.23,1.37-2.49,2.11-3.84-4.26-3.23-11.37-4.75-8-12.45,1.83-4.15,5.16-4,15,.42l12-20.36c1.52-2.58,2.69-5.48,4.68-7.62,1.6-1.71,4.24-3.54,6.33-3.45,2.92.14,3.87-1.11,5-3.13,3.37-6.25,8.1-10.69,15.46-11.81,7.66-1.17,14,1.32,18.69,7.19a19,19,0,0,1,3,20.16c-1.11,2.75-2.66,5.33-4.16,8.28,4.27,3.9,3,8,.31,12.41-5,8.31-9.75,16.81-14.74,25.46,2.53,1.6,4.87,2.93,7.07,4.48,8.11,5.76,11.24,16.14,6.49,24.87-8.69,16-17.95,31.65-27.11,47.37-2.21,3.79-6.13,4.64-9.38,2.61s-4-5.81-1.66-10c7.86-13.77,15.81-27.49,23.72-41.23,5.29-9.18,4.47-11.63-5.69-16.34-.72,1.14-1.5,2.3-2.19,3.5-14,24.32-28.32,48.49-41.94,73a265.3,265.3,0,0,1-30.67,44,150.25,150.25,0,0,0-13.11,18.35c-5.08,8.15-11.73,12.55-21.59,11.76a6.18,6.18,0,0,0-4.4,2.15c-4.37,5.16-8.42,10.59-12.66,15.86-7.6,9.46-19.4,7.8-24.16-3.39C221.27,328.22,220.18,325.46,218.77,322ZM338.3,145.35l-53.23,92.23L308,250.82l53.21-92.2ZM381.23,124l-23-13.23c-4.53,7.86-8.82,15.32-13.21,23L368,146.94C372.47,139.18,376.73,131.8,381.23,124ZM279.47,249.83c-3.25,8.73-6.29,16.92-9.37,25.2l13.08,7.55,17.11-20.68Zm91.31-147.4L382.15,109c2.22-4,5.89-7.37,3.23-11.91a8.22,8.22,0,0,0-5.95-3.29C374,93.63,373.3,98.79,370.78,102.43ZM264.59,287.6c-2.32,4.11-5.83,7.6-3,12a8,8,0,0,0,6,3.17c5.15-.2,6-5.13,8.45-8.7Z"/><path d="M73.5,53.45V66.53h5q78.84,0,157.68,0a23.73,23.73,0,0,1,5.77.62,5.92,5.92,0,0,1,4.53,6.12,6,6,0,0,1-4.77,6.32,21.6,21.6,0,0,1-5,.54q-83.52,0-167,0c-7.61,0-9.69-2.11-9.7-9.76,0-7.41-.07-14.83,0-22.24.06-5.82,2.52-8.25,8.41-8.25q84.89,0,169.77,0c6.07,0,9.83,4,7.84,8.57-.84,1.92-3.14,3.52-5.14,4.53-1.48.75-3.56.41-5.38.41H73.5Z"/><path d="M86.17,373.25c-29.89,0-53.15-19.13-58.55-45.71a56.6,56.6,0,0,1,33.54-63c19.24-8,37.58-5.74,54.83,5.78,4.07,2.72,5,6.55,2.72,10-2.17,3.21-6,3.88-10,1.26a47.28,47.28,0,0,0-20.51-7.88c-22.85-2.82-45,14-47.66,36.27-3,25.34,13.65,47,38,49.45,25.36,2.57,46.7-16,47.91-41.65.25-5.39,3-8.23,7.57-7.74,3.64.4,5.86,3.13,5.71,7.49C139,339.87,128.57,356.28,109.1,367A51.39,51.39,0,0,1,86.17,373.25Z"/><path d="M187,139.87q35.5,0,71,0c5.32,0,8.34,2.43,8.43,6.59a6.25,6.25,0,0,1-5.37,6.58,30.44,30.44,0,0,1-5.05.3q-69.46,0-138.92,0a42.7,42.7,0,0,1-4.67-.23c-3.5-.4-5.37-2.62-5.66-5.92a5.94,5.94,0,0,1,4.59-6.77,18.5,18.5,0,0,1,5-.54Q151.66,139.83,187,139.87Z"/><path d="M153.47,93.19q31.41,0,62.82,0a23.24,23.24,0,0,1,5.4.54,5.92,5.92,0,0,1,4.75,5.9,6,6,0,0,1-4.45,6.53,17,17,0,0,1-5,.63q-63.8.06-127.59,0a18.4,18.4,0,0,1-3.49-.22c-3.61-.7-6-3.44-6-6.63S82.33,94.1,86,93.46a25.32,25.32,0,0,1,4.27-.26Q121.87,93.17,153.47,93.19Z"/><path d="M119.92,193.45q-31.59,0-63.2,0c-6.75,0-9.87-2.09-10-6.64-.1-4.77,3.09-7,10-7H183.15c6.64,0,9.89,2.18,10,6.66.13,4.64-3.24,7-10,7Q151.52,193.47,119.92,193.45Z"/><path d="M86.67,226.58c-10.55,0-21.09,0-31.63,0-5.44,0-8.27-2.33-8.29-6.6s2.9-6.72,8.21-6.73c21.22,0,42.43,0,63.64,0,3.46,0,6.55,1.06,7.39,4.43a8.51,8.51,0,0,1-1.44,6.7c-1.24,1.47-4.1,2.1-6.26,2.15C107.75,226.69,97.21,226.58,86.67,226.58Z"/><path d="M81.48,322.37c7.81-7.88,15.07-15.32,22.47-22.62,4.44-4.38,10.77-3.15,11.79,2.43a8.75,8.75,0,0,1-2,6.59q-11.1,11.78-22.83,23c-5.55,5.31-13,5.23-18.63,0-4.75-4.43-9.3-9.08-13.81-13.77-3-3.1-3.06-7.11-.5-9.78,2.73-2.84,6.72-2.83,10,.39C72.45,312.9,76.7,317.46,81.48,322.37Z"/><path d="M236.64,193.45c-7.28,0-14.57.08-21.85,0-5.33-.08-8.52-3-8.17-7.27.29-3.6,2.91-6.23,7.19-6.27q22.62-.24,45.24,0c4.68,0,7.39,2.88,7.35,6.86s-2.78,6.57-7.53,6.68C251.46,193.57,244.05,193.44,236.64,193.45Z"/><path d="M170,226.58c-7.28,0-14.57,0-21.85,0-5.18,0-8.33-2.68-8.23-6.77s3.22-6.54,8.12-6.56q21.85,0,43.7,0c5.14,0,8.26,2.68,8.17,6.84s-3,6.45-8.06,6.48C184.53,226.62,177.24,226.58,170,226.58Z"/></svg>