<svg id="Layer_1" data-name="Layer 1" xmlns="http://www.w3.org/2000/svg" viewBox="0 0 400.43 400"><path d="M0,99c.62-1.69,1.13-3.43,1.87-5.07C6.3,84.22,13.62,78.26,24.42,77.81c9.88-.41,19.79-.08,30.14-.08a26.11,26.11,0,0,0-1-2.75C37,42.8,57.89,4.22,93.93.35c15.9-1.71,29.49,3.2,41.22,13.74,11.25,10.11,22.41,20.29,33.61,30.44.76.69,1.55,1.34,2.53,2.17,8-8.12,17.53-12.61,28.92-12.6S220.93,38.45,229,46.62c.91-.73,1.81-1.4,2.64-2.15C243,34.24,254.22,24,265.57,13.78,295.79-13.32,342.66,1.53,351.46,41c2.8,12.58.93,24.58-5.95,36.26,1.45.13,2.51.31,3.57.31,7.95,0,15.9,0,23.85,0,16.79.13,27.48,11,27.49,27.75q0,18.36,0,36.74c0,8.51-5.38,13.86-13.92,13.87q-186.3,0-372.6,0C6.93,156,3,152.2,0,146.65ZM161.81,77.38c-.91-2.36-1.1-4.54-2.28-5.63C145,58.36,130.39,45,115.52,31.92c-8.35-7.34-20.26-7.64-29.77-1.55a25.42,25.42,0,0,0-10.9,27.87c3.23,12.16,13,19.31,26.82,19.36,18.49.06,37,0,55.47,0C158.29,77.6,159.44,77.5,161.81,77.38Zm76.79-1,1.24,1.23c2.72,0,5.43,0,8.14,0,18.49-.14,37,.09,55.45-.58,10.34-.38,19.3-8.61,22-18.33a25.26,25.26,0,0,0-8.78-26.91c-8.61-6.67-19.47-7.46-28.83-1.8a53.66,53.66,0,0,0-7.95,6.26C267.18,47.66,254.52,59.09,242,70.67,240.44,72.11,239.71,74.45,238.6,76.38Z"/><path d="M49.27,400c-1.32-.42-2.64-.87-4-1.25C33.34,395.31,26,385.25,26,372.08q0-49,0-98.09V182.25H174.27v4.12q0,104.53,0,209.08a33.79,33.79,0,0,1-.61,4.55Z"/><path d="M226.81,400a28.4,28.4,0,0,1-.61-4.16q0-104.94,0-209.86v-3.76H374.48v4.62q0,91.65,0,183.29c0,16.46-6.78,25.19-22.76,29.36-.21.06-.37.34-.56.51Z"/></svg>