<svg id="Layer_1" data-name="Layer 1" xmlns="http://www.w3.org/2000/svg" viewBox="0 0 378.63 400"><path d="M263.54,0c6.64,3.25,7.18,4.19,6.27,13.43q-2.64,26.63-5.49,53.25c-.52,4.79-4.07,7.61-8.54,7.15a7.63,7.63,0,0,1-6.84-8.5c1.83-18.41,3.9-36.79,5.59-55.21C255,5,257,1.56,262,0Z"/><path d="M138.5,277.1c7.47,11,14.47,21.38,21.48,31.72,9.36,13.82,18.87,27.54,28.06,41.47,11.94,18.07,4.62,40.51-15.39,47.84-13.72,5-28.93-.29-37.9-13.44Q108.31,345.9,82,307c-.88-1.28-1.78-2.55-2.33-3.34-6.36,2.23-12.27,5.16-18.52,6.37C30.26,316,7,294.74,1.31,270.11c-4.7-20.45,3.44-40.36,20.77-52.3,10.63-7.32,21.42-14.42,32-21.78a14.3,14.3,0,0,0,4.48-5.14Q88.43,130.7,118.1,70.4c6.2-12.58,18.37-19,32.44-17.46,16.69,1.77,31,9.13,43.86,19.15,43.23,33.76,72.35,77,85.84,130.4,3.38,13.37,4.41,27.09.38,40.61-3.79,12.74-11.41,22.06-25.16,24.43-7,1.21-14.28,1.24-21.43,1.82q-32.16,2.63-64.32,5.25c-8.06.65-16.13,1.21-24.19,1.84C143.46,276.59,141.4,276.82,138.5,277.1Zm-11-180.44-.78.24c1.93,9.53,3.06,19.31,5.93,28.56,12.8,41.24,36.17,75.76,68.37,104.31,10.38,9.21,21.83,17,35.33,21.08,3.78,1.14,8,2.16,11.79,1.58,9.23-1.41,14.49-7.82,16.92-16.45,3.39-12,2.18-24.2-1.27-35.91-14-47.39-40.89-86-79.91-116.24C175,76.94,165,71.7,153.88,69.22c-13-2.9-22.8,3.46-25.2,16.57C128,89.37,127.88,93,127.5,96.66ZM113.44,114.9c-.58,1.07-1.17,2.07-1.67,3.1q-19,38.75-38,77.46a5.37,5.37,0,0,0,.43,6.3q20,29.18,39.74,58.54a5.32,5.32,0,0,0,5.7,2.71c11.94-1.13,23.9-2,35.85-2.93q26.31-2.07,52.62-4.14c.28,0,.53-.4.57-.43C160.18,220,128.41,173.43,113.44,114.9ZM101.29,269.3c-13.54-19.93-26.77-39.41-40.19-59.15-10.61,7.25-21,14.15-31.2,21.4-9.17,6.54-14,15.68-14.07,27-.09,14.08,6.38,24.88,18.08,32.2,11,6.91,23,7.24,34.12.64S90,276.89,101.29,269.3Zm-9.05,24.9c.82,1.33,1.45,2.44,2.16,3.5q7.45,11,14.92,22,19.22,28.31,38.41,56.6c4.1,6.06,9.65,9.29,17,7.95C177,382,182,369,174.71,358.2q-25.92-38.38-52-76.67c-2-3-5.6-4.08-8.64-2.11C106.78,284.15,99.66,289.16,92.24,294.2Z"/><path d="M358.12,66.28c-1.86,2.64-2.87,5.29-4.78,6.57q-26.43,17.72-53.16,35a8,8,0,0,1-11.35-2.27c-2.29-3.63-1.25-8.17,2.8-10.85,17.59-11.63,35.17-23.3,53-34.59,2.09-1.32,5.91-1.27,8.32-.31C355,60.65,356.15,63.68,358.12,66.28Z"/><path d="M307.85,144.52c11,2,20.94,3.74,30.91,5.54,10.75,1.93,21.49,3.92,32.25,5.8,5,.87,8.1,4.32,7.55,8.65-.58,4.64-5,7.67-10.12,6.79-8.72-1.5-17.41-3.14-26.11-4.71q-17.08-3.08-34.17-6.13c-3.42-.61-6.64-2-7.19-5.62a11.53,11.53,0,0,1,1.68-7.48C303.72,145.74,306.47,145.22,307.85,144.52Z"/><path d="M183.23,128.42c18.76,0,34.73,11.42,40.36,28.86a41.88,41.88,0,0,1-15,46.66c-3.68,2.7-7.49,3-10.45.68s-3.88-5.41-2.54-8.7c.77-1.9,2.57-3.53,4.23-4.9,11.67-9.6,13.44-26.19,3.93-37.68a26.41,26.41,0,0,0-32.26-6.52c-1,.54-2,1.21-3.05,1.75-4.17,2.21-8.71,1.07-10.88-2.73s-1.09-7.86,2.77-10.54A40.83,40.83,0,0,1,183.23,128.42Z"/></svg>