<svg id="Layer_1" data-name="Layer 1" xmlns="http://www.w3.org/2000/svg" viewBox="0 0 408.68 400"><path d="M0,241.19c2-4.63,5.63-7.54,10.21-9.4,6.84-2.76,13.46-6.61,20.57-8,9.35-1.89,17.56,2.16,22.34,10.46,6.07,10.56,11.24,21.64,16.69,32.55q22.32,44.64,44.55,89.33c7.78,15.62,3.43,28.54-12.21,36.3-3.8,1.89-7.59,3.79-11.41,5.65-8.17,4-14.37,1.93-18.44-6.18q-21.75-43.38-43.43-86.78Q14.46,276.31,0,247.57Z"/><path d="M71,215.74c15-13.67,30-26.7,49.91-32.06,29.59-8,56.35-2.62,79.55,17.6,5.94,5.17,11.95,7.49,19.77,7.32,18.48-.38,37-.17,55.45-.1,12.61.05,23,9.06,24.26,20.91a23.9,23.9,0,0,1-18.71,26.32,29.59,29.59,0,0,1-6.72.58c-15,.05-30-.05-45.08.06-9.28.06-14.94,7.29-12.42,15.56a11.53,11.53,0,0,0,11.41,8.31c18.35.13,36.7.31,55.05-.06A26.13,26.13,0,0,0,303.84,270q30.87-38.13,61.88-76.14c8.35-10.27,22.25-12.42,32.81-5.07a23.63,23.63,0,0,1,6.14,32.56c-14.34,21.25-29.17,42.18-43.88,63.18-9.83,14-19.2,28.46-29.88,41.82C317.3,343.43,298.73,351.8,277,352c-33.38.33-66.76.09-100.14.1-11.57,0-23.14,0-34.71,0-2,0-3.31-.29-4.36-2.41C115.63,305.15,93.39,260.63,71,215.74Z"/><path d="M274.34,0a97,97,0,1,1-.24,194c-53.84,0-96.89-43.43-96.84-97.62C177.31,43.17,220.81,0,274.34,0ZM251.62,103.47v20.41c0,6-.06,12,0,18,.06,5,4.44,8.1,8.82,6.4,2.56-1,4.09-3.49,4.1-6.81q0-13.23,0-26.46v-2.56l13,13,21.15,21.14c1.86,1.86,4,2.68,6.61,1.78a6.44,6.44,0,0,0,4.39-5.09c.53-2.59-.78-4.51-2.52-6.25q-15.87-15.84-31.72-31.71c-.49-.5-1-1-1.72-1.85h2.35c8.89,0,17.78,0,26.67,0,4.83,0,8.21-4.54,6.63-8.76-1-2.59-3.46-4.16-6.75-4.17q-13.25,0-26.47,0h-2.09l-.35-.64a14.62,14.62,0,0,0,1.79-1.3Q291.18,73,306.82,57.31a19.18,19.18,0,0,0,1.51-1.62A6.19,6.19,0,0,0,307,46.5c-2.82-2-5.81-1.59-8.67,1.27q-15.94,15.92-31.87,31.85c-.5.5-1,1-1.87,1.76V79.06q0-13.44,0-26.87c0-3.46-1.53-5.73-4.29-6.56-4.78-1.45-8.63,1.42-8.64,6.55,0,12.06,0,24.11,0,36.16v2.18c-2.27,0-4.23,0-6.18,0a6.56,6.56,0,0,0-6.73,6.39c-.06,3.61,2.88,6.46,6.78,6.54C247.44,103.5,249.39,103.47,251.62,103.47Z"/></svg>